<svg width="16" height="16" viewBox="0 0 16 16" fill="none" xmlns="http://www.w3.org/2000/svg">
<path d="M9.33332 6.66667L7.99999 7.33333M7.99999 7.33333L6.66666 6.66667M7.99999 7.33333V9M13.3333 4.66667L12 5.33333M13.3333 4.66667L12 4M13.3333 4.66667V6.33333M9.33332 2.66667L7.99999 2L6.66666 2.66667M2.66666 4.66667L3.99999 4M2.66666 4.66667L3.99999 5.33333M2.66666 4.66667V6.33333M7.99999 14L6.66666 13.3333M7.99999 14L9.33332 13.3333M7.99999 14V12.3333M3.99999 12L2.66666 11.3333V9.66667M12 12L13.3333 11.3333V9.66667" stroke="#374151" stroke-linecap="round" stroke-linejoin="round"/>
</svg>
